<?xml version="1.0" encoding="UTF-8"?>
<svg id="Layer_2" data-name="Layer 2" xmlns="http://www.w3.org/2000/svg" width="744.55" height="107.02" viewBox="0 0 744.55 107.02" preserveAspectRatio="xMidYMid meet">
  <defs>
    <style>
      .cls-1 {
        fill: #fff;
      }
    </style>
  </defs>
  <g id="Layer_33" data-name="Layer 33">
    <g>
      <circle class="cls-1" cx="133.77" cy="53.51" r="53.51"/>
      <path class="cls-1" d="M53.51,53.51c0-19.8,10.77-37.08,26.75-46.33C72.39,2.62,63.26,0,53.51,0,23.96,0,0,23.96,0,53.51s23.96,53.51,53.51,53.51c9.75,0,18.88-2.62,26.75-7.18-15.99-9.25-26.75-26.53-26.75-46.33Z"/>
      <g>
        <path class="cls-1" d="M263.97,44.97h40.71c.71,0,1.29.58,1.29,1.29v18.71c0,26.86-16.08,42.05-44.04,42.05-33.03,0-51.43-21.32-51.43-52.27C210.49,21.9,232.51,0,262.65,0c11.85,0,21.36,3.18,29.21,7.8.4.23.63.66.63,1.12v26.25c0,1.06-1.21,1.66-2.06,1.03-7.15-5.29-13.67-7-20.68-7-16.37,0-21.59,13.43-21.59,27.74s8.29,21.61,16.98,21.61c6.98,0,10.37-3.98,11.36-8.98.16-.79-.46-1.54-1.28-1.54h-11.26c-.71,0-1.29-.58-1.29-1.29v-20.48c0-.71.58-1.29,1.29-1.29Z"/>
        <path class="cls-1" d="M360.77,34.1h27.66c.92,0,1.67.75,1.67,1.67v67.96c0,.92-.75,1.67-1.67,1.67h-25.89c-.92,0-1.67-.75-1.67-1.67v-1.5c0-1.46-1.72-2.19-2.8-1.21-4.23,3.87-9.56,6-15.65,6-16.53,0-27.6-14.91-27.6-37.2s11.07-37.34,27.6-37.34c5.38,0,10.09,1.65,14.03,4.63,1.09.82,2.65.03,2.65-1.34h0c0-.92.75-1.67,1.67-1.67ZM359.11,69.82c0-6.49-3.25-10.04-7.97-10.04-5.02,0-7.82,3.99-7.82,10.04s3.1,9.89,7.82,9.89c5.17,0,7.97-3.99,7.97-9.89Z"/>
        <path class="cls-1" d="M398.96,105.35V5.36c0-.92.75-1.67,1.67-1.67h27.66c.92,0,1.67.75,1.67,1.67v99.99c0,.92-.75,1.67-1.67,1.67h-27.66c-.92,0-1.67-.75-1.67-1.67Z"/>
        <path class="cls-1" d="M484.13,34.1h27.66c.92,0,1.67.75,1.67,1.67v67.96c0,.92-.75,1.67-1.67,1.67h-25.89c-.92,0-1.67-.75-1.67-1.67v-1.5c0-1.46-1.72-2.19-2.8-1.21-4.23,3.87-9.56,6-15.65,6-16.53,0-27.6-14.91-27.6-37.2s11.07-37.34,27.6-37.34c5.38,0,10.09,1.65,14.03,4.63,1.09.82,2.65.03,2.65-1.34h0c0-.92.75-1.67,1.67-1.67ZM482.47,69.82c0-6.49-3.25-10.04-7.97-10.04-5.02,0-7.82,3.99-7.82,10.04s3.1,9.89,7.82,9.89c5.17,0,7.97-3.99,7.97-9.89Z"/>
        <path class="cls-1" d="M521.51,69.82c0-20.52,15.94-37.34,37.64-37.34,6.44,0,12.75,1.59,17.92,4.53.52.29.83.86.83,1.45v22.4c0,1.21-1.25,2.01-2.35,1.52-3.44-1.52-6.94-2.59-12.11-2.59-7.38,0-10.78,4.58-10.78,10.04s3.39,9.89,10.78,9.89c4.51,0,8.6-1.12,11.79-3.43,1.12-.81,2.68-.06,2.68,1.32v23.69c0,.62-.34,1.2-.89,1.48-5.16,2.67-11.44,4.25-17.86,4.25-21.7,0-37.64-16.53-37.64-37.2Z"/>
        <path class="cls-1" d="M638.25,59.49h-8.33c-.92,0-1.67.75-1.67,1.67v15.01c0,3.54,1.33,5.61,4.43,5.61,1.32,0,2.97-.41,5.01-1.17,1.08-.4,2.23.42,2.23,1.57v20.43c0,.7-.44,1.33-1.09,1.57-6.28,2.31-10.11,2.84-15,2.84-20.96,0-26.57-11.96-26.57-25.68v-20.18c0-.92-.75-1.67-1.67-1.67h-7.29c-.92,0-1.67-.75-1.67-1.67v-22.05c0-.92.75-1.67,1.67-1.67h7.29c.92,0,1.67-.75,1.67-1.67v-15.56c0-.92.75-1.67,1.67-1.67h27.66c.92,0,1.67.75,1.67,1.67v15.56c0,.92.75,1.67,1.67,1.67h8.33c.92,0,1.67.75,1.67,1.67v22.05c0,.92-.75,1.67-1.67,1.67Z"/>
        <path class="cls-1" d="M648.45,15.94C648.45,6.35,654.69,0,664.04,0s15.47,6.35,15.47,15.94-6.24,15.65-15.47,15.65-15.6-6.35-15.6-15.65ZM648.56,105.35V37.39c0-.92.75-1.67,1.67-1.67h27.66c.92,0,1.67.75,1.67,1.67v67.96c0,.92-.75,1.67-1.67,1.67h-27.66c-.92,0-1.67-.75-1.67-1.67Z"/>
        <path class="cls-1" d="M688.16,69.82c0-20.52,15.94-37.34,37.64-37.34,6.44,0,12.75,1.59,17.92,4.53.52.29.83.86.83,1.45v22.4c0,1.21-1.25,2.01-2.35,1.52-3.44-1.52-6.94-2.59-12.11-2.59-7.38,0-10.78,4.58-10.78,10.04s3.39,9.89,10.78,9.89c4.51,0,8.6-1.12,11.79-3.43,1.12-.81,2.68-.06,2.68,1.32v23.69c0,.62-.34,1.2-.89,1.48-5.16,2.67-11.44,4.25-17.86,4.25-21.7,0-37.64-16.53-37.64-37.2Z"/>
      </g>
    </g>
  </g>
</svg>